<svg version="1.2" baseProfile="tiny-ps" xmlns="http://www.w3.org/2000/svg" viewBox="0 0 1600 2400" width="1600" height="2400">
	<title>pulken_logo-svg</title>
	<style>
		tspan { white-space:pre }
		.shp0 { fill: none;stroke: #fff;stroke-linecap:square;stroke-width: 32.76 }
		.shp1 { fill: #fff }
		.shp2 { opacity: 0.996;fill: #fff }
	</style>
	<g id="layer1">
		<g id="g5445">
		</g>
		<g id="g5449">
			<path id="path5447" class="shp0" d="M1084.89 1133.39C1026.67 1167 962.41 1188.81 895.76 1197.59C829.12 1206.37 761.4 1201.94 696.47 1184.54C631.54 1167.15 570.66 1137.14 517.33 1096.23C463.99 1055.32 419.24 1004.3 385.62 946.09C351.99 887.89 330.16 823.63 321.37 756.98C312.58 690.34 317 622.62 334.38 557.68C351.76 492.75 381.76 431.87 422.66 378.53C463.56 325.18 514.57 280.42 572.77 246.78C630.97 213.15 695.22 191.31 761.87 182.5C828.51 173.7 896.23 178.11 961.17 195.47C1026.11 212.84 1086.99 242.82 1140.34 283.71C1193.69 324.6 1238.47 375.6 1272.12 433.8C1305.76 491.99 1327.62 556.24 1336.43 622.88C1345.25 689.52 1340.86 757.24 1323.51 822.19C1306.15 887.13 1276.18 948.02 1235.3 1001.38C1194.42 1054.74 1143.43 1099.52 1085.24 1133.18" />
		</g>
		<g id="g5463">
			<g id="g5461">
				<path id="path5451" class="shp1" d="M527.33 633.89C518.67 650.11 514.07 694.31 514.07 694.31C517.69 730.99 548.27 807.93 580.47 825.8C646.94 899.65 726.44 812.68 776.4 825.03C804.54 835.56 822.14 865.58 838.7 891.38C855.26 917.18 870.16 944.43 891.33 966.59C914.36 990.7 945.33 1008.22 978.42 1010.6C994.97 1011.79 1011.82 1009.16 1026.93 1002.4C1042.03 995.64 1055.32 984.7 1064.35 970.8C1073.4 956.87 1078.01 940.32 1079.25 923.7C1080.49 907.07 1078.48 890.32 1075.07 873.97C1068.24 841.27 1055.83 809.68 1052.14 776.5C1045.45 716.26 1067.88 657.4 1082.14 598.65C1084.29 589.79 1086.27 580.61 1084.66 571.61C1083.86 567.11 1082.14 562.73 1079.33 559.13C1076.51 555.52 1072.57 552.73 1068.15 551.68C1062.88 550.42 1057.23 551.68 1052.56 554.39C1047.89 557.09 1044.12 561.15 1041.03 565.58C1034.84 574.44 1031.08 584.96 1024 593.12C1019.2 598.66 1013 602.91 1006.21 605.64C999.42 608.38 992.06 609.62 984.73 609.55C970.06 609.4 955.76 604.04 943.25 596.27C918.23 580.73 900.17 556.21 877.69 537.14C858.46 520.82 835.77 508.47 811.45 502.1C787.12 495.73 761.17 495.44 737.03 502.15C708.99 509.95 727.68 536.07 704.04 553.02C680.39 569.96 616.22 604.92 588.93 615C580.58 617.72 574.25 596.75 558.79 600.73" />
				<path id="path5453" class="shp1" d="M387.37 952.54C400.65 974.59 415.58 995.6 432.02 1015.41C448.46 1035.21 466.37 1053.74 485.59 1070.85C504.82 1087.96 525.31 1103.6 546.89 1117.63C568.47 1131.66 591.08 1144.04 614.52 1154.67C614.13 1153.09 613.6 1151.55 612.92 1150.07C611.48 1146.95 609.47 1144.12 607.19 1141.54C602.63 1136.4 597.02 1132.32 591.84 1127.8C574.74 1112.89 562.22 1093.1 554.46 1071.78C549.95 1059.39 546.99 1046.5 542.87 1033.98C538.76 1021.45 533.34 1009.1 524.65 999.19C516.2 989.55 504.99 982.63 493.15 977.71C481.32 972.79 468.8 969.74 456.3 966.87C433.43 961.6 410.45 956.83 387.37 952.54L387.37 952.54Z" />
				<path id="path5455" class="shp1" d="M1114.95 747.33C1115.06 760.29 1109.87 772.03 1105.42 784.19C1100.21 798.43 1121.71 810.64 1114.93 823.58C1107.4 837.95 1098.8 856.55 1105.91 871.17C1110.25 880.07 1117.58 896.88 1129.46 891.16C1144.23 884.04 1140.47 865.44 1140.12 852.15C1139.79 839.83 1146.45 829.04 1147.03 817.02C1148.03 796.53 1148.74 773.79 1138.05 756.58C1133.63 749.48 1119.75 725.11 1115.76 744.22L1115.3 745.97L1114.95 747.33L1114.95 747.33L1114.95 747.33Z" />
				<path id="path5457" class="shp1" d="M574.46 246.33C572.46 247.51 570.46 248.7 568.48 249.91C566.49 251.12 564.51 252.34 562.54 253.57C560.57 254.8 558.61 256.05 556.65 257.31C554.7 258.57 552.76 259.85 550.82 261.13C545.49 269.99 541.79 280.24 540.36 292.41C533.04 354.93 580.29 298.42 592.41 278.92C621.81 231.62 603.67 262.74 644.23 260.63C702.16 257.61 572.34 349.24 536.66 380.57C501.43 411.5 562.35 470.39 513.47 499.36C426.74 550.78 605.74 578.87 585.17 497.01C584.69 498.02 621.1 493.83 632.88 502.82C689.11 545.73 702.72 500.27 653.11 494.71C598.17 488.56 620.46 437.92 662.75 465.61C719.37 502.67 638.8 419.67 686.37 419.7C744.63 419.73 695.37 436.54 695.5 462.59C695.6 483.25 817.66 395.56 774.88 454.96C751.67 487.17 864.24 477.81 893.04 510.82C937.89 562.23 996.76 536.87 1031.4 483.4C1076.74 413.4 977.46 422.16 929.64 426.51C872.1 431.75 920.49 405.2 951.07 408.53C1029.04 417.02 1069.88 392.75 1124.74 426.22C1181.26 460.7 1196.26 443.81 1169.56 393.13C1150.63 357.21 1070.19 290.15 1139.98 299.73C1149.51 301.04 1156.45 300.81 1161.2 299.35C1121.22 265.46 1076.27 237.9 1027.93 217.65C979.59 197.41 928.42 184.7 876.22 179.98C824.02 175.27 771.41 178.59 720.22 189.85C669.03 201.1 619.87 220.15 574.46 246.33L574.46 246.33Z" />
				<path id="path5459" class="shp1" d="M481.83 346.24C477.09 348.79 472.45 353.19 474.64 357.09C473.97 359.15 474.23 361.45 475.15 363.41C476.06 365.36 477.6 366.99 479.37 368.23C479.41 368.26 479.46 368.28 479.51 368.31C482.12 374.49 482.18 381.74 479.54 387.92C478.27 390.89 476.44 393.58 474.77 396.34C473.09 399.1 471.54 402.01 470.92 405.18C470.38 407.96 470.6 410.95 471.88 413.48C472.53 414.75 473.43 415.89 474.54 416.77C475.65 417.65 476.98 418.26 478.38 418.49C479.83 418.74 481.33 418.57 482.73 418.14C484.14 417.71 485.45 417.02 486.69 416.23C489.15 414.63 491.3 412.59 493.76 410.99C496.3 409.34 499.13 408.19 501.69 406.59C502.98 405.8 504.2 404.88 505.23 403.78C506.27 402.68 507.11 401.38 507.58 399.95C508.14 398.22 508.15 396.35 507.75 394.58C507.36 392.82 506.6 391.15 505.65 389.61C503.76 386.52 501.17 383.91 499.1 380.95C495.63 375.99 493.61 369.98 493.67 363.93C493.71 360.41 494.42 356.79 493.44 353.41C493.27 352.84 493.04 352.29 492.77 351.76C492.82 350.83 492.75 349.9 492.36 349.06C491.82 347.89 490.78 346.95 489.56 346.54C491.39 343 486.57 343.69 481.83 346.24L481.83 346.24ZM456.32 384.62C454.73 385.46 453.33 386.67 452.27 388.12C450.86 390.07 450.06 392.45 450.01 394.85C449.96 397.18 450.6 399.47 451.02 401.76C451.48 404.28 451.72 406.93 453.06 409.11C453.73 410.21 454.69 411.15 455.86 411.66C456.45 411.91 457.09 412.05 457.73 412.05C458.37 412.04 459.01 411.89 459.58 411.59C460.21 411.25 460.74 410.73 461.14 410.13C461.55 409.54 461.84 408.86 462.06 408.18C462.5 406.8 462.69 405.36 463.2 404.01C464.1 401.61 465.92 399.65 466.86 397.27C467.96 394.49 467.72 391.21 466.2 388.64C465.36 387.22 464.14 386.01 462.71 385.19C461.27 384.36 459.63 383.92 457.97 383.9C457.41 384.1 456.85 384.34 456.32 384.62L456.32 384.62Z" />
			</g>
		</g>
		<path id="path5465" fill-rule="evenodd" class="shp2" d="M980.85 30.22C979.45 28.99 977.96 27.85 976.4 26.83C974.84 25.8 973.2 24.89 971.51 24.1C969.82 23.31 968.07 22.64 966.29 22.1C964.5 21.55 962.68 21.14 960.83 20.85C718.12 -19.45 472.42 74.4 318.31 266.18C82.99 559.03 129.73 988.34 422.53 1223.71C527.29 1307.96 654.68 1359.34 788.58 1371.33C798.96 1372.25 809.27 1369.01 817.26 1362.32C825.25 1355.64 830.25 1346.05 831.17 1335.68C832.09 1325.3 828.85 1314.99 822.17 1307C815.48 1299.01 805.9 1294.01 795.52 1293.09C790.77 1292.66 786.04 1292.1 781.31 1291.56L782.95 1275.17C783.32 1271.91 783.29 1268.62 782.85 1265.37C782.41 1262.12 781.56 1258.94 780.33 1255.9C779.09 1252.86 777.48 1249.99 775.54 1247.35C773.59 1244.71 771.32 1242.33 768.78 1240.25C763.24 1235.75 756.59 1232.84 749.52 1231.84C742.46 1230.84 735.26 1231.78 728.69 1234.57C722.12 1237.35 716.43 1241.87 712.24 1247.64C708.05 1253.42 705.51 1260.22 704.89 1267.33L703.88 1277.62C619.41 1256.63 540.08 1217.54 471.67 1162.54C211.94 953.75 170.81 575.14 379.55 315.38C494.9 171.83 668.02 90.71 848.61 90.53L849.35 111.27C849.25 121.98 853.52 132.26 861.18 139.74C868.84 147.22 879.22 151.25 889.92 150.89C900.62 150.53 910.71 145.82 917.85 137.85C925 129.88 928.58 119.34 927.77 108.66L927.33 95.62C934.23 96.51 941.12 97.2 948.02 98.34C956.45 99.84 965.15 98.53 972.77 94.63C980.4 90.73 986.53 84.44 990.25 76.72C993.97 69.01 995.07 60.29 993.37 51.89C991.67 43.5 987.27 35.89 980.85 30.22L980.85 30.22Z" />
		<path id="Shape 1" class="shp1" d="M304.94 1064.37L602.6 1268.64L301.87 1468.36L304.94 1064.37Z" />
		<path id="Shape 2" class="shp1" d="M308.35 1223.91L565.82 1240.4L493.65 2367.09L236.18 2350.6L308.35 1223.91Z" />
	</g>
</svg>